<svg width="183.198242" height="39.970581" viewBox="0 0 183.198 39.9706" fill="none" xmlns="http://www.w3.org/2000/svg" xmlns:xlink="http://www.w3.org/1999/xlink">
	<desc>
			Created with Pixso.
	</desc>
	<defs/>
	<rect id="Rectangle 87" x="89.933594" rx="1.000000" width="93.264656" height="39.970562" fill="#83898F" fill-opacity="1.000000"/>
	<path id="XMLID 735" d="M0 9.22L4.34 9.22L8.96 22.77C10.38 18.28 13.85 8.51 15.14 6.09C17.11 2.31 20.57 0.6 24.85 1.24L24.37 5.52C21.72 5.09 19.89 5.94 18.8 8.23C16.63 12.29 11.2 30.04 11.13 30.19L10.86 30.4L7.33 30.47L0 9.22Z" fill="#83898F" fill-opacity="1.000000" fill-rule="nonzero"/>
	<path id="XMLID 704" d="M27.29 12.65L24.57 12.65L24.57 8.8L34.28 8.8L34.28 12.65L31.36 12.65L31.36 26.05L27.29 26.05L27.29 12.65ZM24.57 26.69L34.28 26.69L34.28 30.54L24.57 30.54L24.57 26.69Z" fill="#83898F" fill-opacity="1.000000" fill-rule="nonzero"/>
	<path id="XMLID 702" d="M42.57 9.22L46.78 9.22L53.3 21.77L53.3 9.22L57.37 9.22L57.37 30.4L57.1 30.54L53.16 30.54L46.64 17.92L46.64 30.54L42.57 30.54L42.57 9.22Z" fill="#83898F" fill-opacity="1.000000" fill-rule="nonzero"/>
	<path id="XMLID 701" d="M165.1 26.27L165.1 22.99L171.21 22.99L171.21 18.72L158.58 18.72L158.58 22.99L160.96 22.99L160.96 30.55L174.27 30.55L174.27 26.27L165.1 26.27Z" fill="#121B25" fill-opacity="1.000000" fill-rule="nonzero"/>
	<path id="XMLID 700" d="M165.1 13.16L173.66 13.16L173.66 8.88L160.96 8.88L160.96 17.93L165.1 17.93L165.1 13.16Z" fill="#121B25" fill-opacity="1.000000" fill-rule="nonzero"/>
	<path id="XMLID 697" d="M102.77 13.51L96.59 13.51L96.59 9.16L113.02 9.16L113.02 13.51L106.84 13.51L106.84 30.55L102.7 30.55L102.7 13.51L102.77 13.51Z" fill="#121B25" fill-opacity="1.000000" fill-rule="nonzero"/>
	<path id="XMLID 693" d="M62.46 17.78L78.22 17.78L78.22 21.91L62.46 21.91L62.46 17.78Z" fill="#83898F" fill-opacity="1.000000" fill-rule="evenodd"/>
	<path id="XMLID 688" d="M145.48 20.57L145.48 24.42L150.09 24.42C149.01 25.56 147.65 26.28 146.02 26.28C142.69 26.28 139.98 23.42 139.98 19.93C139.98 16.44 142.69 13.58 146.02 13.58C148.33 13.58 150.43 14.94 151.45 17.15L155.05 15.08C153.28 11.52 149.82 9.3 146.02 9.3C140.38 9.3 135.9 14.08 135.9 19.93C135.9 25.78 140.45 30.62 146.02 30.62C149.89 30.62 153.49 28.56 155.12 24.49L155.12 20.64L145.48 20.64L145.48 20.57Z" fill="#121B25" fill-opacity="1.000000" fill-rule="nonzero"/>
	<path id="XMLID 685" d="M126.13 9.45L122.32 9.52C122.32 9.52 117.5 25.28 115.13 30.7L117.5 30.7L119.61 30.7L129.05 30.7L130.34 30.7L131.76 30.7L133.39 30.7L126.13 9.45ZM121.03 26.85C122.32 23.35 123.61 19.5 124.36 17.15L127.69 26.85L121.03 26.85Z" fill="#121B25" fill-opacity="1.000000" fill-rule="nonzero"/>
</svg>
