<svg width="135.060303" height="31.716553" viewBox="0 0 135.06 31.7166" fill="none" xmlns="http://www.w3.org/2000/svg" xmlns:xlink="http://www.w3.org/1999/xlink">
	<desc>
			Created with Pixso.
	</desc>
	<defs/>
	<path id="XMLID 651" d="M23.65 1.14L18.27 1.14L11.78 17.98L5.3 1.14L0 1.14L11.78 31.71L23.65 1.14Z" fill="#83898F" fill-opacity="1.000000" fill-rule="nonzero"/>
	<path id="XMLID 650" d="M30.62 1.14L35.6 1.14L35.6 31.71L30.62 31.71L30.62 1.14Z" fill="#83898F" fill-opacity="1.000000" fill-rule="evenodd"/>
	<path id="XMLID 647" d="M53.48 23.86C59.5 23.86 64.48 18.8 64.48 12.5C64.48 6.29 59.57 1.14 53.48 1.14C47.39 1.14 42.48 6.29 42.48 12.5C42.48 18.8 47.47 23.86 53.48 23.86ZM53.48 6.21C56.88 6.21 59.57 8.99 59.57 12.5C59.57 16.02 56.88 18.8 53.48 18.8C50.08 18.8 47.39 16.02 47.39 12.5C47.39 8.99 50.08 6.21 53.48 6.21Z" fill="#83898F" fill-opacity="1.000000" fill-rule="nonzero"/>
	<path id="XMLID 646" d="M43.59 26.64L63.13 26.64L63.13 31.71L43.59 31.71L43.59 26.64Z" fill="#83898F" fill-opacity="1.000000" fill-rule="evenodd"/>
	<path id="XMLID 645" d="M87.27 26.64L76.35 26.64L76.35 1.14L71.44 1.14L71.44 31.71L87.27 31.71L87.27 26.64Z" fill="#83898F" fill-opacity="1.000000" fill-rule="nonzero"/>
	<path id="XMLID 644" d="M114.33 26.64L99.53 26.64L99.53 18.96L111.79 18.96L111.79 13.89L99.53 13.89L99.53 6.29L114.33 6.29L114.33 1.14L94.54 1.14L94.54 31.71L114.33 31.71L114.33 26.64Z" fill="#83898F" fill-opacity="1.000000" fill-rule="nonzero"/>
	<path id="XMLID 643" d="M125.24 31.71L130.15 31.71L130.15 6.29L135.06 6.29L135.06 1.14L120.26 1.14L120.26 6.29L125.24 6.29L125.24 31.71Z" fill="#83898F" fill-opacity="1.000000" fill-rule="nonzero"/>
	<path id="XMLID 640" d="M53.48 25.17C60.21 25.17 65.67 19.53 65.67 12.58C65.67 5.64 60.21 0 53.48 0C46.76 0 41.3 5.64 41.3 12.58C41.22 19.53 46.76 25.17 53.48 25.17ZM53.48 0.65C59.89 0.65 65.03 5.96 65.03 12.58C65.03 19.12 59.89 24.52 53.48 24.52C47.07 24.52 41.93 19.2 41.93 12.58C41.93 5.96 47.07 0.65 53.48 0.65Z" fill="#83898F" fill-opacity="1.000000" fill-rule="nonzero"/>
</svg>
