<svg width="165.626221" height="65.881714" viewBox="0 0 165.626 65.8817" fill="none" xmlns="http://www.w3.org/2000/svg" xmlns:xlink="http://www.w3.org/1999/xlink">
	<desc>
			Created with Pixso.
	</desc>
	<defs/>
	<path id="XMLID 575" d="M16.33 15.73C7.32 15.73 0 23.44 0 32.9C0 42.37 7.32 50.08 16.33 50.08C25.33 50.08 32.66 42.37 32.66 32.9C32.66 23.44 25.33 15.73 16.33 15.73ZM25.21 40.74C24.71 41.2 24.09 41.65 23.47 42.04C22.85 42.5 22.1 42.83 21.36 43.22C20.61 43.55 19.74 43.81 18.87 44C18 44.2 17.07 44.33 16.08 44.33C14.65 44.33 13.35 44.13 12.29 43.81C11.24 43.48 10.37 43.02 9.68 42.37C9 41.78 8.5 41.07 8.19 40.22C7.88 39.37 7.7 38.52 7.7 37.54C7.7 36.17 8.01 35.06 8.56 34.14C9.12 33.23 9.93 32.45 10.86 31.79C10.37 31.27 9.99 30.62 9.68 29.83C9.37 29.12 9.19 28.33 9.19 27.42C9.19 26.5 9.37 25.59 9.68 24.81C9.99 24.02 10.49 23.31 11.05 22.72C11.67 22.13 12.35 21.67 13.16 21.35C13.97 21.02 14.84 20.89 15.77 20.89C16.82 20.89 17.76 21.09 18.56 21.41C19.43 21.74 20.12 22.2 20.74 22.78C21.36 23.37 21.79 24.09 22.1 24.87C22.41 25.66 22.6 26.57 22.6 27.55C22.6 28.66 22.29 29.64 21.73 30.49C21.17 31.34 20.49 32.05 19.68 32.71L22.54 35.25C22.79 34.99 23.03 34.73 23.28 34.41C23.53 34.14 23.84 33.75 24.21 33.23L28.44 37.02C28 37.67 27.51 38.32 26.95 38.91C26.39 39.63 25.83 40.22 25.21 40.74ZM23.59 37.67C23.22 38.06 22.79 38.39 22.41 38.71C21.67 39.24 20.74 39.76 19.68 40.22C18.63 40.67 17.38 40.87 15.96 40.87C15.46 40.87 14.96 40.8 14.4 40.67C13.91 40.54 13.41 40.35 12.97 40.09C12.54 39.82 12.17 39.43 11.92 38.98C11.61 38.52 11.48 37.93 11.48 37.28C11.48 36.3 11.73 35.58 12.29 34.99C12.79 34.41 13.53 33.88 14.53 33.36L15.46 32.84L20.43 37.15L21.05 36.69L16.2 32.45C17.38 31.79 18.31 31.08 19 30.29C19.68 29.51 20.05 28.59 20.05 27.48C20.05 26.9 19.93 26.37 19.74 25.92C19.49 25.46 19.25 25 18.81 24.68C18.44 24.35 18 24.09 17.45 23.89C16.95 23.7 16.39 23.63 15.77 23.63C15.27 23.63 14.78 23.7 14.28 23.89C13.78 24.09 13.35 24.35 12.97 24.68C12.6 25 12.29 25.46 12.04 25.92C11.79 26.37 11.73 26.96 11.73 27.55C11.73 28.4 11.92 29.12 12.35 29.7C12.79 30.36 13.35 30.94 14.09 31.6L14.9 32.32L14.15 32.71C13.72 32.97 13.22 33.23 12.85 33.49C12.42 33.82 12.1 34.14 11.79 34.47C11.48 34.86 11.24 35.25 11.11 35.71C10.92 36.17 10.86 36.69 10.86 37.21C10.86 37.93 10.99 38.58 11.3 39.17C11.61 39.76 11.98 40.15 12.48 40.54C12.97 40.87 13.53 41.2 14.15 41.33C14.78 41.52 15.46 41.59 16.14 41.59C17.57 41.59 18.87 41.33 20.05 40.87C21.17 40.41 22.16 39.82 22.97 39.24C23.9 38.52 24.71 37.74 25.46 36.82L24.84 36.36C24.34 36.89 23.97 37.28 23.59 37.67ZM14.53 31.08C13.66 30.36 13.16 29.7 12.85 29.18C12.6 28.66 12.48 28.14 12.48 27.61C12.48 26.7 12.79 25.92 13.35 25.33C13.97 24.74 14.71 24.42 15.64 24.42C16.08 24.42 16.51 24.48 16.89 24.61C17.32 24.74 17.63 24.94 18 25.2C18.31 25.46 18.56 25.79 18.75 26.18C18.94 26.57 19.06 27.03 19.06 27.55C19.06 28.59 18.75 29.44 18.13 30.1C17.51 30.75 16.64 31.34 15.46 31.99L14.53 31.08ZM16.7 28.4C16.89 28.14 17.01 27.81 17.01 27.42C17.01 26.57 16.64 26.18 15.83 26.18C15.46 26.18 15.21 26.31 14.96 26.5C14.71 26.77 14.65 27.03 14.65 27.42C14.65 27.75 14.71 28.01 14.84 28.33C14.96 28.59 15.27 28.92 15.64 29.31C16.14 28.99 16.45 28.66 16.7 28.4ZM14.22 37.15C14.22 37.67 14.4 38.06 14.84 38.32C15.21 38.58 15.71 38.71 16.2 38.71C16.51 38.71 16.82 38.71 17.2 38.65C17.51 38.58 17.82 38.52 18.13 38.39L15.09 35.65C14.46 36.04 14.22 36.56 14.22 37.15Z" fill="#83898F" fill-opacity="1.000000" fill-rule="nonzero"/>
	<path id="XMLID 574" d="M15.64 0L17.01 0L17.01 17.3L15.64 17.3L15.64 0Z" fill="#83898F" fill-opacity="1.000000" fill-rule="evenodd"/>
	<path id="XMLID 573" d="M15.64 46.68L17.01 46.68L17.01 65.88L15.64 65.88L15.64 46.68Z" fill="#83898F" fill-opacity="1.000000" fill-rule="evenodd"/>
	<path id="Creater fav" d="M58.06 29.93C55.63 29.93 53.44 29.4 51.47 28.33C49.53 27.25 48.01 25.77 46.9 23.9C45.79 22 45.23 19.88 45.23 17.52Q45.23 14.76 46.25 12.45L46.25 12.45Q46.53 11.79 46.9 11.18Q47.63 9.92 48.62 8.91Q49.86 7.63 51.51 6.74Q52.08 6.42 52.68 6.17L52.68 6.17Q55.16 5.11 58.09 5.11Q60.94 5.11 63.29 6.08Q64.61 6.6 65.71 7.42Q66.58 8.06 67.31 8.89L65.06 11.07Q63.82 9.77 62.3 9.06Q60.47 8.2 58.23 8.2Q56.05 8.2 54.21 8.99L54.21 8.99Q53.77 9.17 53.34 9.41Q52.21 10.04 51.33 10.92Q50.51 11.74 49.91 12.77Q49.65 13.22 49.45 13.7Q48.7 15.45 48.7 17.52Q48.7 19.49 49.38 21.19L49.38 21.19Q49.61 21.76 49.91 22.3C50.75 23.71 51.89 24.82 53.34 25.63C54.8 26.44 56.43 26.84 58.23 26.84Q60.32 26.84 62.06 26.08Q63.71 25.35 65.06 23.93L67.31 26.12C66.2 27.36 64.85 28.31 63.26 28.96C61.69 29.61 59.95 29.93 58.06 29.93ZM133.19 28.58C132.7 28.99 132.1 29.32 131.38 29.55C130.67 29.76 129.93 29.86 129.16 29.86C127.32 29.86 125.88 29.36 124.87 28.37C123.85 27.38 123.34 25.95 123.34 24.11L123.34 14.02L120.22 14.02L120.22 11.28L123.34 11.28L123.34 7.26L126.67 7.26L126.67 11.28L131.94 11.28L131.94 14.02L126.67 14.02L126.67 23.97C126.67 24.96 126.91 25.72 127.4 26.25C127.91 26.79 128.62 27.05 129.55 27.05C130.56 27.05 131.43 26.76 132.14 26.19L133.19 28.58ZM73.92 14.37Q74.26 13.75 74.72 13.24Q75.45 12.45 76.49 11.94Q78.19 11.11 80.61 11.11L80.61 14.33C80.43 14.31 80.17 14.3 79.85 14.3C78.05 14.3 76.63 14.84 75.59 15.93Q75.55 15.97 75.51 16.01L75.5 16.01Q74.06 17.6 74.06 20.5L74.06 29.65L70.73 29.65L70.73 11.28L73.92 11.28L73.92 14.37ZM100.11 20.57C100.11 20.82 100.08 21.16 100.04 21.58L85.13 21.58C85.34 23.19 86.05 24.5 87.25 25.49C88.47 26.46 89.99 26.95 91.79 26.95Q93.91 26.95 95.49 26.03Q96.37 25.52 97.09 24.73L98.93 26.88C98.1 27.85 97.06 28.59 95.81 29.1Q93.97 29.86 91.68 29.86C89.74 29.86 88.02 29.47 86.52 28.68C85.02 27.87 83.85 26.75 83.02 25.32C82.21 23.89 81.81 22.27 81.81 20.47C81.81 18.69 82.2 17.08 82.98 15.65C83.79 14.22 84.89 13.11 86.28 12.32Q86.73 12.06 87.2 11.86Q88.95 11.11 91.03 11.11C92.78 11.11 94.34 11.51 95.7 12.32C97.09 13.11 98.17 14.22 98.93 15.65C99.71 17.08 100.11 18.72 100.11 20.57ZM109.87 11.11C112.41 11.11 114.35 11.73 115.69 12.98C117.06 14.23 117.74 16.09 117.74 18.56L117.74 29.65L114.58 29.65L114.58 27.23C114.03 28.08 113.23 28.74 112.19 29.2C111.18 29.64 109.96 29.86 108.55 29.86C106.5 29.86 104.84 29.36 103.6 28.37C102.37 27.38 101.76 26.07 101.76 24.45C101.76 22.83 102.35 21.54 103.53 20.57C104.71 19.58 106.58 19.08 109.14 19.08L114.41 19.08L114.41 18.42C114.41 16.99 113.99 15.89 113.16 15.13C112.33 14.37 111.11 13.98 109.49 13.98C108.4 13.98 107.34 14.17 106.3 14.54C105.26 14.89 104.38 15.36 103.67 15.96L102.28 13.46C103.23 12.7 104.36 12.12 105.68 11.73C106.99 11.32 108.39 11.11 109.87 11.11ZM152.16 20.57C152.16 20.82 152.14 21.16 152.09 21.58L137.19 21.58C137.4 23.19 138.1 24.5 139.3 25.49C140.53 26.46 142.04 26.95 143.84 26.95C146.04 26.95 147.81 26.21 149.15 24.73L150.98 26.88C150.15 27.85 149.11 28.59 147.86 29.1C146.64 29.61 145.26 29.86 143.74 29.86C141.8 29.86 140.08 29.47 138.57 28.68C137.07 27.87 135.91 26.75 135.07 25.32C134.27 23.89 133.86 22.27 133.86 20.47C133.86 18.69 134.25 17.08 135.04 15.65C135.85 14.22 136.95 13.11 138.33 12.32C139.74 11.51 141.32 11.11 143.08 11.11C144.84 11.11 146.4 11.51 147.76 12.32C149.15 13.11 150.22 14.22 150.98 15.65C151.77 17.08 152.16 18.72 152.16 20.57ZM158.93 14.37C159.51 13.3 160.36 12.49 161.5 11.94C162.63 11.39 164 11.11 165.62 11.11L165.62 14.33C165.44 14.31 165.18 14.3 164.86 14.3Q162.75 14.3 161.34 15.29Q160.94 15.57 160.6 15.93C159.58 16.99 159.07 18.51 159.07 20.5L159.07 29.65L155.74 29.65L155.74 11.28L158.93 11.28L158.93 14.37ZM91.03 13.92Q89.41 13.92 88.14 14.58Q87.53 14.9 87 15.37C85.94 16.34 85.32 17.61 85.13 19.18L96.92 19.18C96.73 17.64 96.1 16.38 95.01 15.41Q94.48 14.91 93.86 14.58Q92.62 13.92 91.03 13.92ZM143.08 13.92C141.49 13.92 140.15 14.4 139.06 15.37C138 16.34 137.37 17.61 137.19 19.18L148.97 19.18C148.79 17.64 148.15 16.38 147.07 15.41C146 14.41 144.67 13.92 143.08 13.92ZM109.11 27.29C110.38 27.29 111.48 27.02 112.4 26.46C113.32 25.89 113.99 25.08 114.41 24.04L114.41 21.47L109.28 21.47C106.46 21.47 105.05 22.42 105.05 24.31C105.05 25.24 105.41 25.97 106.13 26.5C106.84 27.03 107.84 27.29 109.11 27.29ZM50.68 41.09L50.68 49.54L62.84 49.54L62.84 52.52L50.68 52.52L50.68 62.33L47.21 62.33L47.21 38.07L64.33 38.07L64.33 41.09L50.68 41.09ZM73.73 43.79C76.28 43.79 78.22 44.41 79.56 45.66C80.92 46.91 81.6 48.77 81.6 51.24L81.6 62.33L78.45 62.33L78.45 59.91C77.89 60.76 77.1 61.42 76.06 61.88Q74.53 62.54 72.42 62.54Q69.33 62.54 67.46 61.05C66.23 60.06 65.62 58.75 65.62 57.13C65.62 55.52 66.21 54.22 67.39 53.25Q69.16 51.76 73.01 51.76L78.27 51.76L78.27 51.1C78.27 49.67 77.86 48.57 77.03 47.81C76.19 47.05 74.97 46.67 73.35 46.67C72.27 46.67 71.2 46.85 70.16 47.22C69.12 47.57 68.25 48.04 67.53 48.64L66.14 46.15C67.09 45.38 68.22 44.81 69.54 44.41C70.86 44 72.25 43.79 73.73 43.79ZM102.64 43.96L94.6 62.33L91.2 62.33L83.16 43.96L86.62 43.96L92.93 58.69L99.38 43.96L102.64 43.96ZM72.97 59.98C74.24 59.98 75.34 59.7 76.26 59.14C77.19 58.57 77.86 57.76 78.27 56.72L78.27 54.15L73.14 54.15C70.32 54.15 68.92 55.1 68.92 56.99C68.92 57.92 69.27 58.65 69.99 59.18C70.71 59.71 71.7 59.98 72.97 59.98Z" fill="#83898F" fill-opacity="1.000000" fill-rule="evenodd"/>
</svg>
