<svg width="146.222168" height="43.301453" viewBox="0 0 146.222 43.3015" fill="none" xmlns="http://www.w3.org/2000/svg" xmlns:xlink="http://www.w3.org/1999/xlink">
	<desc>
			Created with Pixso.
	</desc>
	<defs/>
	<path id="Line 1" d="M1.5 0L1.5 43.3" stroke="#83898F" stroke-opacity="1.000000" stroke-width="3.000000"/>
	<path id="Lavender Agency" d="M20.82 15.8L26 15.8L26 17.76L18.38 17.76L18.38 5.92L20.82 5.92L20.82 15.8ZM40.91 15.32L36.64 15.32L35.82 17.76L33.23 17.76L37.64 5.92L39.9 5.92L44.33 17.76L41.74 17.76L40.91 15.32ZM55.84 14.82L58.52 5.92L61.24 5.92L57.11 17.76L54.57 17.76L50.46 5.92L53.17 5.92L55.84 14.82ZM76.14 12.63L71.46 12.63L71.46 15.8L76.96 15.8L76.96 17.76L69.02 17.76L69.02 5.92L76.94 5.92L76.94 7.9L71.46 7.9L71.46 10.72L76.14 10.72L76.14 12.63ZM94.68 17.76L92.24 17.76L87.49 9.97L87.49 17.76L85.05 17.76L85.05 5.92L87.49 5.92L92.25 13.73L92.25 5.92L94.68 5.92L94.68 17.76ZM103.47 17.76L103.47 5.92L107.12 5.92C108.16 5.92 109.09 6.16 109.9 6.63C110.73 7.09 111.37 7.76 111.83 8.63C112.29 9.49 112.52 10.47 112.52 11.57L112.52 12.12C112.52 13.22 112.3 14.2 111.84 15.05C111.39 15.91 110.75 16.57 109.93 17.04C109.11 17.52 108.18 17.75 107.14 17.76L103.47 17.76ZM128.09 12.63L123.41 12.63L123.41 15.8L128.9 15.8L128.9 17.76L120.97 17.76L120.97 5.92L128.89 5.92L128.89 7.9L123.41 7.9L123.41 10.72L128.09 10.72L128.09 12.63ZM141.38 13.43L139.44 13.43L139.44 17.76L137 17.76L137 5.92L141.39 5.92Q143.49 5.92 144.63 6.85C145.39 7.48 145.77 8.36 145.77 9.5Q145.77 10.71 145.24 11.52C144.89 12.06 144.37 12.49 143.66 12.81L146.22 17.65L146.22 17.76L143.6 17.76L141.38 13.43ZM105.91 7.9L105.91 15.8L107.09 15.8Q108.13 15.8 108.81 15.31Q109.07 15.12 109.28 14.86Q110.04 13.93 110.05 12.19L110.05 11.56C110.05 10.36 109.8 9.45 109.3 8.83C108.8 8.21 108.08 7.9 107.12 7.9L105.91 7.9ZM139.44 11.45L141.4 11.45C142.02 11.45 142.49 11.29 142.83 10.99C143.16 10.67 143.33 10.24 143.33 9.69C143.33 9.13 143.17 8.7 142.85 8.38C142.54 8.06 142.05 7.9 141.39 7.9L139.44 7.9L139.44 11.45ZM37.3 13.34L40.25 13.34L38.77 8.91L37.3 13.34ZM45.44 37.36Q44.78 38.15 43.57 38.59C42.77 38.87 41.88 39.02 40.91 39.02C39.88 39.02 38.98 38.8 38.21 38.35C37.44 37.9 36.84 37.25 36.42 36.4C36 35.55 35.79 34.55 35.77 33.4L35.77 32.59C35.77 31.41 35.97 30.39 36.37 29.53C36.77 28.66 37.34 28 38.09 27.54C38.85 27.08 39.73 26.85 40.74 26.85C42.14 26.85 43.24 27.19 44.03 27.86C44.82 28.53 45.29 29.5 45.44 30.78L43.06 30.78C42.95 30.1 42.71 29.61 42.34 29.29Q41.78 28.82 40.81 28.82C39.98 28.82 39.35 29.13 38.91 29.76C38.48 30.38 38.26 31.31 38.25 32.54L38.25 33.29C38.25 34.53 38.49 35.47 38.96 36.11C39.43 36.74 40.12 37.06 41.04 37.06C41.95 37.06 42.61 36.86 43 36.47L43 34.43L40.78 34.43L40.78 32.63L45.44 32.63L45.44 37.36ZM97.83 34.91C97.73 36.19 97.26 37.19 96.41 37.92C95.57 38.65 94.45 39.02 93.06 39.02C91.54 39.02 90.35 38.51 89.48 37.49Q88.17 35.95 88.17 33.28L88.17 32.55C88.17 31.41 88.37 30.41 88.78 29.54C89.18 28.68 89.75 28.01 90.49 27.55C91.24 27.09 92.11 26.85 93.09 26.85C94.46 26.85 95.56 27.22 96.4 27.95C97.23 28.68 97.71 29.71 97.84 31.03L95.4 31.03C95.34 30.27 95.13 29.72 94.76 29.37C94.4 29.03 93.84 28.85 93.09 28.85C92.28 28.85 91.67 29.15 91.26 29.73Q90.66 30.6 90.65 32.44L90.65 33.33C90.65 34.61 90.84 35.55 91.22 36.14Q91.41 36.42 91.67 36.62Q92.21 37.03 93.06 37.03C93.81 37.03 94.38 36.85 94.74 36.51C95.12 36.17 95.33 35.63 95.39 34.91L97.83 34.91ZM25.06 36.42L20.79 36.42L19.97 38.86L17.38 38.86L21.79 27.02L24.05 27.02L28.48 38.86L25.88 38.86L25.06 36.42ZM61.2 33.72L56.52 33.72L56.52 36.9L62.02 36.9L62.02 38.86L54.08 38.86L54.08 27.02L62 27.02L62 28.99L56.52 28.99L56.52 31.81L61.2 31.81L61.2 33.72ZM79.74 38.86L77.3 38.86L72.55 31.06L72.55 38.86L70.11 38.86L70.11 27.02L72.55 27.02L77.31 34.82L77.31 27.02L79.74 27.02L79.74 38.86ZM110.17 32.35L112.64 27.02L115.3 27.02L111.42 34.56L111.42 38.86L108.94 38.86L108.94 34.56L105.05 27.02L107.73 27.02L110.17 32.35ZM21.44 34.44L24.4 34.44L22.92 30.01L21.44 34.44Z" fill="#83898F" fill-opacity="1.000000" fill-rule="evenodd"/>
</svg>
