<svg width="20" height="20" viewBox="0 0 20 20" fill="none" xmlns="http://www.w3.org/2000/svg">
<path d="M19.2129 14.4458C19.2074 14.4363 19.1999 14.4286 19.1939 14.4196L19.1944 14.4193L12.4682 2.76959L12.4644 2.77159C12.4087 2.68322 12.3278 2.61349 12.2322 2.57134L12.2417 2.56584L10.2452 1.41284L12.4629 5.25409L17.5074 13.9913L17.5069 13.9916C17.5129 14.0006 17.5204 14.0083 17.5259 14.0178C17.5602 14.0773 17.5825 14.1429 17.5915 14.2109C17.6004 14.2789 17.5959 14.348 17.5781 14.4143C17.5604 14.4806 17.5297 14.5427 17.488 14.5972C17.4462 14.6516 17.3941 14.6973 17.3347 14.7316L17.3382 14.7378L9.87292 19.0478L10.1962 19.6076C10.2027 19.6213 10.2072 19.6356 10.2149 19.6491C10.2823 19.7654 10.3921 19.8511 10.5212 19.8885C10.6503 19.9258 10.7889 19.9118 10.9079 19.8493L10.9092 19.8513L19.0254 15.1656L19.0219 15.1593C19.1418 15.09 19.2293 14.9759 19.2651 14.8421C19.3009 14.7083 19.2822 14.5658 19.2129 14.4458Z" fill="#1AA090"/>
<path d="M15.6115 14.2403C15.6709 14.206 15.723 14.1604 15.7648 14.1059C15.8065 14.0515 15.8372 13.9894 15.8549 13.9231C15.8727 13.8568 15.8772 13.7877 15.8683 13.7197C15.8593 13.6516 15.8371 13.586 15.8027 13.5266C15.7972 13.5171 15.7898 13.5093 15.7838 13.5003L15.7843 13.5001L9.058 1.85035L9.05425 1.85235C8.99849 1.76397 8.91762 1.69425 8.822 1.6521L8.8315 1.6466L6.079 0.0573494V0.0683493C6.00935 0.0286064 5.93145 0.0055119 5.85139 0.0008714C5.77133 -0.0037691 5.69128 0.0101701 5.6175 0.0415993L5.6145 0.0363493L5.563 0.0660994L5.55975 0.0675993C5.55825 0.0683493 5.558 0.0690994 5.55675 0.0695994L0.261 3.1271C0.183444 3.17203 0.118819 3.23625 0.0733955 3.31352C0.0279717 3.39078 0.00329164 3.47848 0.00174999 3.5681L0 3.5671V6.7456L0.00524998 6.7426C-0.00650002 6.84935 0.0127499 6.9606 0.0704999 7.06085C0.0739999 7.06685 0.0784999 7.07135 0.0822499 7.0771L6.786 18.6886C6.7925 18.7023 6.797 18.7166 6.80475 18.7301C6.87216 18.8464 6.98188 18.9321 7.11102 18.9695C7.24015 19.0068 7.3787 18.9928 7.49775 18.9303L7.499 18.9324L15.6152 14.2466L15.6115 14.2403ZM4.52775 4.3351C4.36224 4.43066 4.17211 4.47499 3.98141 4.46249C3.7907 4.44999 3.60798 4.38122 3.45637 4.26487C3.30475 4.14852 3.19104 3.98982 3.12962 3.80885C3.0682 3.62787 3.06182 3.43274 3.11131 3.24815C3.16079 3.06355 3.2639 2.89777 3.4076 2.77177C3.5513 2.64578 3.72914 2.56523 3.91862 2.54031C4.10811 2.51539 4.30072 2.54722 4.47212 2.63178C4.64351 2.71634 4.78597 2.84982 4.8815 3.01535C4.94508 3.12519 4.98637 3.2465 5.003 3.37233C5.01963 3.49815 5.01127 3.62602 4.97841 3.74861C4.94555 3.8712 4.88883 3.98611 4.8115 4.08675C4.73417 4.18739 4.63775 4.27178 4.52775 4.3351Z" fill="#1AA090"/>
</svg>
