<svg width="16" height="16" viewBox="0 0 16 16" fill="none" xmlns="http://www.w3.org/2000/svg">
<path d="M9.10535 10.4643L13.3662 14.7251" stroke="#1AA090"/>
<path d="M10.4928 9.07681L14.7536 13.3376" stroke="#1AA090"/>
<path d="M14.7537 13.3377C14.9376 13.5217 15.041 13.7712 15.041 14.0314C15.041 14.2916 14.9376 14.5411 14.7537 14.7251" stroke="#1AA090" stroke-linecap="round" stroke-linejoin="round"/>
<path d="M13.3662 14.7251C13.5502 14.9091 13.7997 15.0125 14.0599 15.0125C14.3201 15.0125 14.5696 14.9091 14.7536 14.7251" stroke="#1AA090" stroke-linecap="round" stroke-linejoin="round"/>
<path d="M5.43364 0.990381C6.01339 0.990381 6.58746 1.10457 7.12308 1.32643C7.6587 1.54829 8.14538 1.87348 8.55532 2.28342C8.96527 2.69337 9.29045 3.18004 9.51231 3.71566C9.73417 4.25128 9.84836 4.82535 9.84836 5.4051C9.84836 5.98485 9.73417 6.55892 9.51231 7.09454C9.29045 7.63016 8.96527 8.11684 8.55532 8.52678C8.14538 8.93673 7.6587 9.26191 7.12308 9.48377C6.58746 9.70563 6.01339 9.81982 5.43364 9.81982C4.26279 9.81982 3.13988 9.3547 2.31196 8.52678C1.48404 7.69886 1.01892 6.57596 1.01892 5.4051C1.01892 4.82535 1.13311 4.25128 1.35497 3.71566C1.57683 3.18004 1.90202 2.69337 2.31196 2.28342C2.72191 1.87348 3.20858 1.54829 3.7442 1.32643C4.27982 1.10457 4.85389 0.990381 5.43364 0.990381Z" stroke="#1AA090" stroke-linecap="round" stroke-linejoin="round"/>
<path d="M9.10535 10.4644L10.4928 9.07694" stroke="#1AA090" stroke-linecap="round" stroke-linejoin="round"/>
<path d="M9.79904 9.77051L8.5553 8.52677" stroke="#1AA090" stroke-linecap="round" stroke-linejoin="round"/>
<path d="M10.2896 11.6484L11.677 10.261" stroke="#1AA090" stroke-linecap="round" stroke-linejoin="round"/>
<path d="M5.43359 2.95241C6.08407 2.95241 6.7079 3.21081 7.16786 3.67076C7.62782 4.13072 7.88622 4.75455 7.88622 5.40503" stroke="#1AA090" stroke-linecap="round" stroke-linejoin="round"/>
</svg>
